<svg width="24" height="24" viewBox="0 0 24 24" fill="none" xmlns="http://www.w3.org/2000/svg">
<path d="M11.7999 1.02721e-06C14.8999 7.56201e-07 17.8998 1.20002 20.0998 3.40002C24.6998 8.00002 24.6998 15.5 20.0998 20.1C17.8998 22.3 14.8999 23.5 11.7999 23.5C8.69988 23.5 5.69983 22.3 3.49983 20.1C1.29983 17.9 -0.000172413 14.9 -0.000172684 11.8C-0.000172955 8.69999 1.19985 5.7 3.39985 3.5C5.69985 1.3 8.69988 1.29822e-06 11.7999 1.02721e-06ZM11.7999 21.6C14.3999 21.6 16.8999 20.6 18.6999 18.7C22.4999 14.9 22.4999 8.70002 18.6999 4.90002C16.8999 3.10003 14.3999 2 11.7999 2C9.19988 2 6.69985 3.00003 4.89985 4.90003C3.09985 6.70003 1.99983 9.19999 1.99983 11.8C1.99983 14.4 2.99985 16.9 4.89985 18.7C6.79985 20.6 9.19988 21.6 11.7999 21.6Z" fill="black"/>
<path d="M9.39966 5.99999C9.69966 5.99999 9.89961 6.09998 10.0996 6.29998L14.8997 11.1C15.0997 11.3 15.1997 11.5 15.1997 11.8C15.1997 12.1 15.0997 12.3 14.8997 12.5L10.0996 17.3C9.69961 17.7 9.09971 17.7 8.69971 17.3C8.29971 16.9 8.29971 16.3 8.69971 15.9L12.7997 11.8L8.69971 7.7C8.29971 7.3 8.29971 6.69998 8.69971 6.29998C8.89971 6.09998 9.19966 5.99999 9.39966 5.99999Z" fill="black"/>
</svg>
